<svg xmlns="http://www.w3.org/2000/svg" viewBox="0 0 1440 320"><path fill="#343a40" fill-opacity="0.6" d="M0,256L6.2,240C12.3,224,25,192,37,197.3C49.2,203,62,245,74,245.3C86.2,245,98,203,111,181.3C123.1,160,135,160,148,138.7C160,117,172,75,185,80C196.9,85,209,139,222,170.7C233.8,203,246,213,258,197.3C270.8,181,283,139,295,133.3C307.7,128,320,160,332,181.3C344.6,203,357,213,369,192C381.5,171,394,117,406,112C418.5,107,431,149,443,149.3C455.4,149,468,107,480,117.3C492.3,128,505,192,517,202.7C529.2,213,542,171,554,133.3C566.2,96,578,64,591,74.7C603.1,85,615,139,628,138.7C640,139,652,85,665,90.7C676.9,96,689,160,702,160C713.8,160,726,96,738,106.7C750.8,117,763,203,775,202.7C787.7,203,800,117,812,101.3C824.6,85,837,139,849,138.7C861.5,139,874,85,886,53.3C898.5,21,911,11,923,16C935.4,21,948,43,960,74.7C972.3,107,985,149,997,165.3C1009.2,181,1022,171,1034,170.7C1046.2,171,1058,181,1071,165.3C1083.1,149,1095,107,1108,101.3C1120,96,1132,128,1145,165.3C1156.9,203,1169,245,1182,218.7C1193.8,192,1206,96,1218,64C1230.8,32,1243,64,1255,80C1267.7,96,1280,96,1292,128C1304.6,160,1317,224,1329,245.3C1341.5,267,1354,245,1366,229.3C1378.5,213,1391,203,1403,208C1415.4,213,1428,235,1434,245.3L1440,256L1440,320L1433.8,320C1427.7,320,1415,320,1403,320C1390.8,320,1378,320,1366,320C1353.8,320,1342,320,1329,320C1316.9,320,1305,320,1292,320C1280,320,1268,320,1255,320C1243.1,320,1231,320,1218,320C1206.2,320,1194,320,1182,320C1169.2,320,1157,320,1145,320C1132.3,320,1120,320,1108,320C1095.4,320,1083,320,1071,320C1058.5,320,1046,320,1034,320C1021.5,320,1009,320,997,320C984.6,320,972,320,960,320C947.7,320,935,320,923,320C910.8,320,898,320,886,320C873.8,320,862,320,849,320C836.9,320,825,320,812,320C800,320,788,320,775,320C763.1,320,751,320,738,320C726.2,320,714,320,702,320C689.2,320,677,320,665,320C652.3,320,640,320,628,320C615.4,320,603,320,591,320C578.5,320,566,320,554,320C541.5,320,529,320,517,320C504.6,320,492,320,480,320C467.7,320,455,320,443,320C430.8,320,418,320,406,320C393.8,320,382,320,369,320C356.9,320,345,320,332,320C320,320,308,320,295,320C283.1,320,271,320,258,320C246.2,320,234,320,222,320C209.2,320,197,320,185,320C172.3,320,160,320,148,320C135.4,320,123,320,111,320C98.5,320,86,320,74,320C61.5,320,49,320,37,320C24.6,320,12,320,6,320L0,320Z"></path></svg>