<?xml version="1.0" standalone="no"?><svg xmlns="http://www.w3.org/2000/svg" viewBox="0 0 1440 320"><path fill="#e9ecef" fill-opacity="0.6" d="M0,96L6.2,128C12.3,160,25,224,37,261.3C49.2,299,62,309,74,277.3C86.2,245,98,171,111,160C123.1,149,135,203,148,240C160,277,172,299,185,282.7C196.9,267,209,213,222,192C233.8,171,246,181,258,192C270.8,203,283,213,295,186.7C307.7,160,320,96,332,112C344.6,128,357,224,369,245.3C381.5,267,394,213,406,176C418.5,139,431,117,443,117.3C455.4,117,468,139,480,122.7C492.3,107,505,53,517,48C529.2,43,542,85,554,112C566.2,139,578,149,591,154.7C603.1,160,615,160,628,138.7C640,117,652,75,665,48C676.9,21,689,11,702,42.7C713.8,75,726,149,738,202.7C750.8,256,763,288,775,298.7C787.7,309,800,299,812,293.3C824.6,288,837,288,849,282.7C861.5,277,874,267,886,224C898.5,181,911,107,923,96C935.4,85,948,139,960,144C972.3,149,985,107,997,106.7C1009.2,107,1022,149,1034,170.7C1046.2,192,1058,192,1071,202.7C1083.1,213,1095,235,1108,229.3C1120,224,1132,192,1145,170.7C1156.9,149,1169,139,1182,138.7C1193.8,139,1206,149,1218,165.3C1230.8,181,1243,203,1255,229.3C1267.7,256,1280,288,1292,261.3C1304.6,235,1317,149,1329,144C1341.5,139,1354,213,1366,224C1378.5,235,1391,181,1403,170.7C1415.4,160,1428,192,1434,208L1440,224L1440,320L1433.8,320C1427.7,320,1415,320,1403,320C1390.8,320,1378,320,1366,320C1353.8,320,1342,320,1329,320C1316.9,320,1305,320,1292,320C1280,320,1268,320,1255,320C1243.1,320,1231,320,1218,320C1206.2,320,1194,320,1182,320C1169.2,320,1157,320,1145,320C1132.3,320,1120,320,1108,320C1095.4,320,1083,320,1071,320C1058.5,320,1046,320,1034,320C1021.5,320,1009,320,997,320C984.6,320,972,320,960,320C947.7,320,935,320,923,320C910.8,320,898,320,886,320C873.8,320,862,320,849,320C836.9,320,825,320,812,320C800,320,788,320,775,320C763.1,320,751,320,738,320C726.2,320,714,320,702,320C689.2,320,677,320,665,320C652.3,320,640,320,628,320C615.4,320,603,320,591,320C578.5,320,566,320,554,320C541.5,320,529,320,517,320C504.6,320,492,320,480,320C467.7,320,455,320,443,320C430.8,320,418,320,406,320C393.8,320,382,320,369,320C356.9,320,345,320,332,320C320,320,308,320,295,320C283.1,320,271,320,258,320C246.2,320,234,320,222,320C209.2,320,197,320,185,320C172.3,320,160,320,148,320C135.4,320,123,320,111,320C98.5,320,86,320,74,320C61.5,320,49,320,37,320C24.6,320,12,320,6,320L0,320Z"></path></svg>