<svg xmlns="http://www.w3.org/2000/svg" viewBox="0 0 1440 320"><path fill="#343a40" fill-opacity="0.6" d="M0,256L6.2,224C12.3,192,25,128,37,96C49.2,64,62,64,74,90.7C86.2,117,98,171,111,170.7C123.1,171,135,117,148,106.7C160,96,172,128,185,170.7C196.9,213,209,267,222,250.7C233.8,235,246,149,258,106.7C270.8,64,283,64,295,58.7C307.7,53,320,43,332,37.3C344.6,32,357,32,369,26.7C381.5,21,394,11,406,16C418.5,21,431,43,443,74.7C455.4,107,468,149,480,138.7C492.3,128,505,64,517,42.7C529.2,21,542,43,554,48C566.2,53,578,43,591,80C603.1,117,615,203,628,213.3C640,224,652,160,665,154.7C676.9,149,689,203,702,192C713.8,181,726,107,738,112C750.8,117,763,203,775,240C787.7,277,800,267,812,272C824.6,277,837,299,849,298.7C861.5,299,874,277,886,266.7C898.5,256,911,256,923,218.7C935.4,181,948,107,960,80C972.3,53,985,75,997,74.7C1009.2,75,1022,53,1034,80C1046.2,107,1058,181,1071,192C1083.1,203,1095,149,1108,128C1120,107,1132,117,1145,112C1156.9,107,1169,85,1182,96C1193.8,107,1206,149,1218,144C1230.8,139,1243,85,1255,90.7C1267.7,96,1280,160,1292,154.7C1304.6,149,1317,75,1329,58.7C1341.5,43,1354,85,1366,138.7C1378.5,192,1391,256,1403,234.7C1415.4,213,1428,107,1434,53.3L1440,0L1440,320L1433.8,320C1427.7,320,1415,320,1403,320C1390.8,320,1378,320,1366,320C1353.8,320,1342,320,1329,320C1316.9,320,1305,320,1292,320C1280,320,1268,320,1255,320C1243.1,320,1231,320,1218,320C1206.2,320,1194,320,1182,320C1169.2,320,1157,320,1145,320C1132.3,320,1120,320,1108,320C1095.4,320,1083,320,1071,320C1058.5,320,1046,320,1034,320C1021.5,320,1009,320,997,320C984.6,320,972,320,960,320C947.7,320,935,320,923,320C910.8,320,898,320,886,320C873.8,320,862,320,849,320C836.9,320,825,320,812,320C800,320,788,320,775,320C763.1,320,751,320,738,320C726.2,320,714,320,702,320C689.2,320,677,320,665,320C652.3,320,640,320,628,320C615.4,320,603,320,591,320C578.5,320,566,320,554,320C541.5,320,529,320,517,320C504.6,320,492,320,480,320C467.7,320,455,320,443,320C430.8,320,418,320,406,320C393.8,320,382,320,369,320C356.9,320,345,320,332,320C320,320,308,320,295,320C283.1,320,271,320,258,320C246.2,320,234,320,222,320C209.2,320,197,320,185,320C172.3,320,160,320,148,320C135.4,320,123,320,111,320C98.5,320,86,320,74,320C61.5,320,49,320,37,320C24.6,320,12,320,6,320L0,320Z"></path></svg>