<svg xmlns="http://www.w3.org/2000/svg" viewBox="0 0 1440 320"><path fill="#343a40" fill-opacity="0.6" d="M0,192L6.2,176C12.3,160,25,128,37,133.3C49.2,139,62,181,74,181.3C86.2,181,98,139,111,117.3C123.1,96,135,96,148,122.7C160,149,172,203,185,208C196.9,213,209,171,222,176C233.8,181,246,235,258,250.7C270.8,267,283,245,295,218.7C307.7,192,320,160,332,170.7C344.6,181,357,235,369,234.7C381.5,235,394,181,406,138.7C418.5,96,431,64,443,58.7C455.4,53,468,75,480,112C492.3,149,505,203,517,229.3C529.2,256,542,256,554,218.7C566.2,181,578,107,591,74.7C603.1,43,615,53,628,80C640,107,652,149,665,149.3C676.9,149,689,107,702,96C713.8,85,726,107,738,128C750.8,149,763,171,775,192C787.7,213,800,235,812,208C824.6,181,837,107,849,90.7C861.5,75,874,117,886,144C898.5,171,911,181,923,202.7C935.4,224,948,256,960,277.3C972.3,299,985,309,997,282.7C1009.2,256,1022,192,1034,144C1046.2,96,1058,64,1071,58.7C1083.1,53,1095,75,1108,112C1120,149,1132,203,1145,218.7C1156.9,235,1169,213,1182,213.3C1193.8,213,1206,235,1218,208C1230.8,181,1243,107,1255,96C1267.7,85,1280,139,1292,186.7C1304.6,235,1317,277,1329,250.7C1341.5,224,1354,128,1366,106.7C1378.5,85,1391,139,1403,170.7C1415.4,203,1428,213,1434,218.7L1440,224L1440,320L1433.8,320C1427.7,320,1415,320,1403,320C1390.8,320,1378,320,1366,320C1353.8,320,1342,320,1329,320C1316.9,320,1305,320,1292,320C1280,320,1268,320,1255,320C1243.1,320,1231,320,1218,320C1206.2,320,1194,320,1182,320C1169.2,320,1157,320,1145,320C1132.3,320,1120,320,1108,320C1095.4,320,1083,320,1071,320C1058.5,320,1046,320,1034,320C1021.5,320,1009,320,997,320C984.6,320,972,320,960,320C947.7,320,935,320,923,320C910.8,320,898,320,886,320C873.8,320,862,320,849,320C836.9,320,825,320,812,320C800,320,788,320,775,320C763.1,320,751,320,738,320C726.2,320,714,320,702,320C689.2,320,677,320,665,320C652.3,320,640,320,628,320C615.4,320,603,320,591,320C578.5,320,566,320,554,320C541.5,320,529,320,517,320C504.6,320,492,320,480,320C467.7,320,455,320,443,320C430.8,320,418,320,406,320C393.8,320,382,320,369,320C356.9,320,345,320,332,320C320,320,308,320,295,320C283.1,320,271,320,258,320C246.2,320,234,320,222,320C209.2,320,197,320,185,320C172.3,320,160,320,148,320C135.4,320,123,320,111,320C98.5,320,86,320,74,320C61.5,320,49,320,37,320C24.6,320,12,320,6,320L0,320Z"></path></svg>